<?xml version="1.0" encoding="iso-8859-1"?>
<!-- Generator: Adobe Illustrator 21.0.0, SVG Export Plug-In . SVG Version: 6.00 Build 0)  -->
<svg version="1.1" id="&#x56FE;&#x5C42;_1" xmlns="http://www.w3.org/2000/svg" xmlns:xlink="http://www.w3.org/1999/xlink" x="0px"
	 y="0px" viewBox="0 0 977.554 512" style="enable-background:new 0 0 977.554 512;" xml:space="preserve">
<path id="XMLID_21_" style="fill:none;stroke:#33A1D2;stroke-width:10.0603;stroke-linecap:round;stroke-linejoin:round;stroke-miterlimit:10;" d="
	M97.491,298.041c-18.506,0-33.509-15.002-33.509-33.509s15.002-33.509,33.509-33.509"/>
<path id="XMLID_154_" style="fill:none;stroke:#33A1D2;stroke-width:10.0603;stroke-linecap:round;stroke-linejoin:round;stroke-miterlimit:10;" d="
	M166.179,261.149"/>
<path id="XMLID_20_" style="fill:none;stroke:#33A1D2;stroke-width:10.0604;stroke-linecap:round;stroke-linejoin:round;stroke-miterlimit:10;" d="
	M110.913,229.404c0-21.381,17.332-38.713,38.713-38.713s38.713,17.332,38.713,38.713"/>
<path id="XMLID_19_" style="fill:none;stroke:#2EAC6F;stroke-width:10.0603;stroke-linecap:round;stroke-linejoin:round;stroke-miterlimit:10;" d="
	M201.459,298.016c-11.014-0.445-19.582-9.735-19.137-20.75c0.445-11.014,9.735-19.582,20.75-19.137"/>
<path id="XMLID_151_" style="fill:none;stroke:#33A1D2;stroke-width:9.1239;stroke-linecap:round;stroke-linejoin:round;stroke-miterlimit:10;" d="
	M84.774,245.185"/>
<path id="XMLID_18_" style="fill:none;stroke:#2EAC6F;stroke-width:10.0603;stroke-linecap:round;stroke-linejoin:round;stroke-miterlimit:10;" d="
	M186.16,233.829c4.98-1.577,10.403-2.11,16.046-2.11c18.308,0,33.15,14.842,33.15,33.15s-14.842,33.15-33.15,33.15"/>
<g id="XMLID_145_">
	<g id="XMLID_146_">
		<path id="XMLID_147_" style="fill:#E7211A;" d="M142.105,225.131c-0.148,0.297-0.396,0.495-0.643,0.495l-3.759,0.594
			c-1.434,0.247-1.978,2.028-0.989,3.116l2.671,2.72c0.198,0.247,0.297,0.544,0.247,0.791l-0.593,3.759
			c-0.247,1.484,1.286,2.621,2.522,1.929l3.314-1.781c0.247-0.148,0.544-0.148,0.791,0l3.314,1.781
			c1.236,0.692,2.77-0.396,2.522-1.929l-0.643-3.808c-0.049-0.297,0.049-0.593,0.247-0.841l2.671-2.671
			c1.039-1.088,0.445-2.869-0.94-3.116l-3.709-0.544c-0.297-0.049-0.544-0.247-0.643-0.495l-1.632-3.511
			c-0.643-1.385-2.473-1.385-3.116,0L142.105,225.131z M142.105,225.131"/>
	</g>
</g>
<path id="XMLID_17_" style="fill:none;stroke:#2EAC6F;stroke-width:10.0603;stroke-linecap:round;stroke-linejoin:round;stroke-miterlimit:10;" d="
	M202.206,231.719c0,0-20.115-1.966-35.393,13.675c-4.185,4.284-12.354,17.559-16.593,24.671
	c-6.792,11.396-12.107,16.166-15.494,18.154"/>
<path id="XMLID_143_" style="fill:none;stroke:#2EAC6F;stroke-width:10.0603;stroke-linecap:round;stroke-linejoin:round;stroke-miterlimit:10;" d="
	M92.347,265.403"/>
<path id="XMLID_2_" style="fill:none;stroke:#2EAC6F;stroke-width:10.0603;stroke-linecap:round;stroke-linejoin:round;stroke-miterlimit:10;" d="
	M151.897,267.411c-5.955,11.356-15.343,24.881-30.289,24.198c-14.652-0.669-23.043-10.805-22.814-23.671
	c0.229-12.865,10.815-23.126,23.644-22.919"/>
<g id="XMLID_3_">
	<g id="XMLID_60_">
		<path id="XMLID_77_" style="fill:#FFFFFF;" d="M827.454,235.07v-12.573h122.212v12.573l-79.785,0.448L849.03,278.71
			c-0.355,1.428-1.757,1.889-1.757,3.133c0,2.58,0.973,4.445,2.919,5.597c1.151,0.689,2.3,1.036,3.45,1.036h3.981h67.496
			c3.494,0,5.661-0.161,6.502-0.483c2.3-0.922,3.45-2.81,3.45-5.667c0-1.105-0.111-2.141-0.332-3.108l-11.995-28.806h15.65
			l8.936,26.809c0.796,3.593,0.545,6.856,0.545,9.667c0,4.743-2.167,8.612-6.502,11.607c-3.009,2.071-7.608,3.108-13.802,3.108
			H848.62c-4.999,0-4.797-1.267-8.247-3.801c-4.158-3.04-6.237-7.3-6.237-12.781c0-1.888,0.332-4.169,0.996-6.84l21.345-43.111
			H827.454z"/>
		<rect id="XMLID_76_" x="829.498" y="189.346" style="fill:#FFFFFF;" width="117.833" height="12.367"/>
	</g>
	<path id="XMLID_59_" style="fill:#FFFFFF;" d="M413.93,303.115l-0.067-12.11c2.854-0.759,4.705-2.43,5.553-5.018
		c0.49-1.561,1.181-5.174,2.074-10.839h12.311c-0.893,7.45-1.606,12.066-2.141,13.85
		C429.252,297.739,423.341,302.446,413.93,303.115z"/>
	<path id="XMLID_58_" style="fill:#FFFFFF;" d="M415.804,272.672v-9.902l105.646,0.067c2.631,0,3.902-0.846,3.814-2.542
		l-0.067-1.271H415.804v-9.032h109.459v-0.736c0-1.694-1.182-2.542-3.546-2.542l-105.913-0.067v-10.103h22.079v-4.617h-21.41v-9.835
		h21.41v-5.085h-21.41v-9.835h21.41v-4.014h-21.41v-9.835h21.41v-3.546h12.378v3.546h22.213v9.835h-22.213v4.014h22.213v9.835
		h-22.213v5.085h22.213v9.835h-22.213v4.617h50.381v-4.617h-21.678v-9.835h21.678v-5.085h-21.678v-9.835h21.678v-4.014h-21.678
		v-9.835h21.678v-3.546h12.378v3.546h22.079v9.835h-22.079v4.014h22.079v9.835h-22.079v5.085h22.079v9.835h-22.079v4.617
		l10.705-0.067c16.072,0,13.582-2.062,13.582,11.709v13.649c0,11.491,0.297,8.266-1.978,10.094c-1.873,1.472-6.297,0.678-10.4,0.678
		L415.804,272.672z"/>
	<path id="XMLID_57_" style="fill:#FFFFFF;" d="M450.662,275.215h12.378l-0.067,7.895c0,5.085,2.631,7.627,7.895,7.627h38.338
		v12.378h-40.746c-5.577,0-23.845,1.161-13.181-4.683c-6.708,5.332-4.617-7.316-4.617-12.98V275.215z"/>
	<rect id="XMLID_56_" x="478.161" y="275.215" style="fill:#FFFFFF;" width="23.083" height="10.705"/>
	<path id="XMLID_55_" style="fill:#FFFFFF;" d="M517.368,275.148h12.311c1.025,6.334,1.94,10.327,2.743,11.976
		c1.114,2.32,2.832,3.523,5.152,3.613v12.378c-0.803-0.09-1.405-0.157-1.806-0.201c-6.958-0.937-11.665-3.993-14.117-9.166
		C520.044,290.358,518.616,284.159,517.368,275.148z"/>
	<path id="XMLID_51_" style="fill:#FFFFFF;" d="M659.173,219.798l-5.918,15.072c-5.13,13.07-10.528,23.551-16.191,31.446
		c-3.168,4.416-7.383,9.056-12.645,13.917c11.864,7.271,25.826,10.906,41.884,10.906c2.007,0,4.75-0.09,8.229-0.268v12.244
		c-2.365,0-4.148,0-5.353,0c-2.454,0.044-4.483,0.067-6.089,0.067c-10.661,0-20.898-1.763-30.71-5.286
		c-5.531-2.007-11.776-5.242-18.734-9.701c-7.895,4.459-15.054,7.627-21.477,9.501c-12,3.568-25.849,5.374-41.549,5.419v-12.378
		c1.828,0,3.479,0,4.951,0c5.977,0,12.533-0.602,19.671-1.806c8.698-1.472,17.908-4.593,27.632-9.367
		c-6.736-7.047-11.976-13.381-15.723-19.001c-3.837-5.754-7.56-12.244-11.173-19.47l-10.504-21.276h14.184l7.226,15.121
		c3.345,6.958,6.958,13.314,10.839,19.068c4.459,6.557,9.79,12.69,15.991,18.399c10.928-9.099,19.246-21.097,24.956-35.996
		l6.425-16.61 M647.702,213.059h-96.68V200.48h55.399v-10.705h12.244v10.705h55.867v12.578H661.82H647.702z"/>
	<path id="XMLID_13_" style="fill:#FFFFFF;" d="M688.917,302.312v-13.783c3.79-2.141,5.931-7.27,6.423-15.389l4.014-64.164h-10.437
		v-12.244h20.54v-8.163h12.445v8.163h20.34v12.244H712l-1.137,16.526h16.794c9.009,0,13.515,3.926,13.515,11.776v51.92
		c0,8.474-4.282,12.712-12.846,12.712h-11.307v-12.445h8.497c0.937,0,1.761-0.445,2.476-1.338c0.49-0.669,0.736-1.382,0.736-2.141
		v-44.894c0-2.275-1.428-3.412-4.282-3.412h-14.385l-2.676,35.795c-0.625,8.922-2.7,15.902-6.222,20.942
		C698.439,298.341,694.358,300.974,688.917,302.312z M746.457,217.274v-12.378c2.185-0.401,3.814-1.025,4.884-1.873
		c1.07-0.847,1.962-2.208,2.676-4.081c0.846-2.318,1.783-5.798,2.81-10.437h12.712c-0.58,2.542-1.228,4.996-1.94,7.36h44.56v12.378
		h-49.043c-2.81,3.034-5.063,5.041-6.758,6.022C753.592,215.869,750.292,216.872,746.457,217.274z M812.56,220.552v12.244h-45.63
		c-3.034,0-4.55,1.539-4.55,4.617v48.708c0,2.275,1.226,3.412,3.68,3.412h13.515v12.378h-18.734c-4.105,0-14.437,0.55-9.434-5.687
		c-2.257,6.795-1.405-3.68-1.405-6.222v-57.607c0-4.817-0.857-13.227,5.286-10.17c-4.742-2.426,5.286-1.673,9.701-1.673H812.56z
		 M769.071,240.624h14.251l2.208,6.49h27.03v12.378h-22.748l6.356,18.332c1.606,4.64,4.237,8.007,7.895,10.103
		c1.873,1.07,4.705,1.74,8.497,2.007v12.378c-6.602-0.535-11.709-1.873-15.322-4.014c-5.577-3.345-9.813-8.875-12.712-16.593
		L769.071,240.624z"/>
	<g id="XMLID_4_">
		<path id="XMLID_5_" style="fill:#FFFFFF;" d="M264.857,246.762l-0.067-11.374c9.946-1.159,17.329-4.727,22.146-10.705h-21.276
			v-12.177h-0.602v-13.114c4.995-1.472,8.541-5.219,10.638-11.24h13.314l-1.539,5.085h42.686v12.378h-25.224v6.691h25.224v12.378
			h-21.276c5.888,6.468,13.114,9.969,21.678,10.504v11.575c-7.94-1.204-14.207-2.966-18.801-5.286
			c-4.951-2.452-9.367-5.888-13.248-10.304c-3.658,3.926-7.092,6.803-10.304,8.631C282.185,243.194,274.401,245.514,264.857,246.762
			z M266.73,212.305h24.153v-6.691l-11.776,0.067c-1.696,1.295-3.056,2.275-4.081,2.944
			C273.242,209.786,270.477,211.012,266.73,212.305z M266.73,290.452v-28.235c0-8.072,4.416-12.11,13.248-12.11h92.13
			c3.345,0,5.731,0.246,7.159,0.736c4.906,1.74,7.36,5.398,7.36,10.973v27.03c0,4.55-1.116,7.939-3.345,10.17
			c-1.249,1.248-2.409,2.074-3.479,2.476c-1.74,0.579-4.193,0.87-7.36,0.87h-93.201c-4.238,0-7.45-1.204-9.635-3.613
			C267.688,296.562,266.73,293.797,266.73,290.452z M279.108,269.644h95.074v-3.212c0-2.765-1.718-4.148-5.152-4.148H283.39
			c-2.855,0-4.282,1.271-4.282,3.814V269.644z M374.182,282.022h-95.074v4.215c0,2.542,1.761,3.814,5.286,3.814h81.961
			c3.881,0,6.155-0.335,6.824-1.004c0.669-0.625,1.004-1.783,1.004-3.479V282.022z M337.049,234.251v-32.249
			c0-3.255-0.858-13.853,3.011-8.029c-7.895-5.963,5.241-3.479,9.166-3.479h26.16c4.326,0,7.604,1.07,9.835,3.212
			c2.185,2.097,3.278,4.862,3.278,8.296v30.576c0,4.729,0.37,14.216-3.278,10.237c6.038,4.042-4.683,3.278-7.36,3.278h-28.636
			c-3.703,0-6.624-1.004-8.765-3.011C338.186,240.941,337.049,237.997,337.049,234.251z M376.122,229.902v-22.614
			c0-2.944-1.405-4.416-4.215-4.416h-19.001c-2.454,0-3.68,1.383-3.68,4.148v22.882c0,2.542,1.226,3.814,3.68,3.814h18.667
			C374.605,233.715,376.122,232.444,376.122,229.902z"/>
	</g>
</g>
</svg>
