<?xml version="1.0" encoding="UTF-8"?>
<svg width="48px" height="48px" viewBox="0 0 48 48" version="1.1" xmlns="http://www.w3.org/2000/svg" xmlns:xlink="http://www.w3.org/1999/xlink">
    <title>人体监测与属性分析</title>
    <g id="人体监测与属性分析" stroke="none" stroke-width="1" fill="none" fill-rule="evenodd">
        <g id="编组">
            <path d="M24.1048035,46.0173913 C11.9475982,46.0173913 1.99126637,36.1043478 1.99126637,24 C1.99126637,11.8956522 11.9475982,1.9826087 24.1048035,1.9826087 C35.2139738,1.9826087 44.4366812,10.226087 45.9039302,20.8695652 L48,20.8695652 C46.4279476,9.07826087 36.3668122,0 24.1048035,0 C10.7947598,0 0,10.7478261 0,24 C0,37.2521739 10.7947598,48 24.1048035,48 C36.3668122,48 46.4279476,38.9217391 48,27.1304348 L45.9039302,27.1304348 C44.4366812,37.773913 35.2139738,46.0173913 24.1048035,46.0173913 Z" id="Path-Copy-6" fill="#7B848E" fill-rule="nonzero"></path>
            <circle id="椭圆形" stroke="#7C848E" stroke-width="2" cx="24" cy="21" r="3"></circle>
            <path d="M26.1590553,27 C28.7896899,27 31.0453895,28.5221597 32,30.6882851 L30.3764701,32.985 L30.3720033,32.7939606 C30.2624522,30.746685 28.5295707,29.1055655 26.3695984,29.0048953 L26.1590553,29 L21.9406075,29 C19.8486326,29 18.1123212,30.4439207 17.7796543,32.3380494 L16,30.9289814 C16.8894483,28.6357687 19.2135684,27 21.9406075,27 L26.1590553,27 Z" id="路径" fill="#7C848E" fill-rule="nonzero"></path>
            <path d="M12,24.9584355 L14.0083556,24.9590713 C14.4774313,29.6830737 18.2340045,33.4399467 22.9578706,33.9094858 L22.9585034,35.917858 C17.1287467,35.4366852 12.4806955,30.7883276 12,24.9584355 Z M24.9584355,35.9179407 L24.9590713,33.9095851 C29.6834066,33.4404763 33.4404763,29.6834066 33.9095851,24.9590713 L35.9179407,24.9584355 C35.4372177,30.7886615 30.7886615,35.4372177 24.9584355,35.9179407 Z M35.917858,22.9585034 L33.9094858,22.9578706 C33.4399467,18.2340045 29.6830737,14.4774313 24.9590713,14.0083556 L24.9584355,12 C30.7883276,12.4806955 35.4366852,17.1287467 35.917858,22.9585034 Z M22.9585034,12.0000826 L22.9578706,14.0084548 C18.2343374,14.4779608 14.4779608,18.2343374 14.0084548,22.9578706 L12.0000826,22.9585034 C12.4812279,17.1290806 17.1290806,12.4812279 22.9585034,12.0000826 Z" id="形状结合" fill="#7C848E" fill-rule="nonzero"></path>
            <rect id="矩形" x="0" y="0" width="48" height="48"></rect>
        </g>
    </g>
</svg>